<svg width="150" height="34" viewBox="0 0 150 34" fill="none" xmlns="http://www.w3.org/2000/svg">
<path d="M58.8447 28.1955H149.359L150 26.6193H59.5128L58.8447 28.1955Z" fill="#E73729"/>
<path d="M57.6975 30.9234H148.158C148.36 30.5328 148.549 30.1421 148.718 29.7514L148.88 29.3405H58.3723L57.6975 30.9234Z" fill="#E73729"/>
<path d="M56.5503 33.6312H146.383C146.784 33.1261 147.158 32.6 147.503 32.055H57.1846L56.5098 33.6312" fill="#E73729"/>
<path d="M25.7311 0.00668335L22.6404 7.41591H14.2186L17.3025 0.00668335H9.49478L0 22.8136H7.81447L11.5058 13.9293H19.9343L16.2295 22.8136H24.0507L33.5455 0.00668335H25.7311Z" fill="#263C8A"/>
<path d="M54.6608 13.734L57.2049 7.59783H64.8169L62.2593 13.734H54.6608Z" fill="#263C8A"/>
<path d="M61.0581 22.8135L70.5529 0.00655365H78.3201L71.4167 16.5965H83.0641L80.4863 22.8135H61.0581Z" fill="#263C8A"/>
<path d="M55.4301 5.59734H47.4739L43.0133 16.334H36.3528L40.8201 5.59734H32.8909L27.7623 17.9101C27.7218 17.991 27.6813 18.0853 27.6476 18.1661C26.7163 20.3754 27.5936 22.2075 29.5978 22.4163H29.8272H30.0027H30.1849H40.4692L38.2895 27.6162H28.68L26.1427 33.7457H39.7404C41.9943 33.6514 44.5317 31.7789 45.4899 29.482L45.3212 29.8794L55.4031 5.63101" fill="#263C8A"/>
<path d="M128.453 22.8406L121.077 14.4143L135.538 5.50304H124.991L116.589 10.6221L121.01 0H113.769L104.26 22.8406H111.508L113.627 17.7417L117.77 22.8406H128.453Z" fill="#263C8A"/>
<path d="M98.079 16.2734C97.7506 17.0171 97.2252 17.6572 96.5593 18.1249C95.8933 18.5926 95.1122 18.87 94.3 18.9272H92.8828C91.4252 18.9272 90.7301 17.7417 91.3375 16.2734L93.1123 12.0029C93.4422 11.2682 93.9639 10.6356 94.6228 10.1711C95.2817 9.70655 96.0535 9.42732 96.8575 9.36257H98.2814C99.7458 9.36257 100.427 10.548 99.8268 12.0029L98.052 16.2734M103.626 4.49268H95.7306C92.0055 4.49268 87.7407 7.517 86.1886 11.2283L83.7322 17.149C82.1801 20.8671 83.9346 23.8847 87.6462 23.8847H95.5349C99.2532 23.8847 103.518 20.8469 105.084 17.149L107.547 11.2283C109.092 7.50352 107.344 4.49268 103.626 4.49268Z" fill="#263C8A"/>
</svg>
