<svg xmlns="http://www.w3.org/2000/svg" viewBox="0 0 219.93 105.95"><defs><style>.cls-1{fill:#1d1d1b;}</style></defs><g id="Слой_2" data-name="Слой 2"><g id="Слой_1-2" data-name="Слой 1"><path class="cls-1" d="M142.09,60.37l20.47-.77q-.88,11.91-8.88,19.58a27.11,27.11,0,0,1-19.47,7.67,27.77,27.77,0,0,1-20.5-8.44,28.29,28.29,0,0,1-8.35-20.69,26.85,26.85,0,0,1,8.44-19.91,28.58,28.58,0,0,1,48.26,14.84l-20.9.77a8.28,8.28,0,0,0-6.84-3.53,7.77,7.77,0,0,0-5.8,2.31,8.08,8.08,0,0,0-2.26,5.85,8.2,8.2,0,0,0,2.4,6,8.08,8.08,0,0,0,6,2.43Q139.89,66.49,142.09,60.37Z"/><path class="cls-1" d="M219.93,51.61q0-9.76-4.67-15.5a15.38,15.38,0,0,0-12.6-5.74,17.75,17.75,0,0,0-10.48,3.81V19.88L171.55,0V86.47h20.63V56.57q0-5.13,3.47-5.13a3.13,3.13,0,0,1,2.9,1.22q.75,1.22.75,4.74l.12,29.07h0L219.75,106l.12-19.48h0Z"/><path class="cls-1" d="M90.08,41.79q0-4.8,2.12-7.39a7.36,7.36,0,0,1,6-2.59c.22,0,.57,0,1,.05V10.22l-2.2,0a26.41,26.41,0,0,0-14.53,4.5,28.22,28.22,0,0,0-10.4,11.61,30.65,30.65,0,0,0-2.7,13.46V86.47H90.08v-29h9.21V43.67H90.08Z"/><path class="cls-1" d="M49.73,37.39q-7.69-7.8-21-7.8A27.71,27.71,0,0,0,8.36,37.92,27.58,27.58,0,0,0,0,58.22q0,12.3,8.27,20.46T29,86.85l.34,0V66.44c-.24,0-.48,0-.73,0a7.29,7.29,0,0,1-5.46-2.21A8.11,8.11,0,0,1,29,50.66a7,7,0,0,1,5.71,2.59,10.68,10.68,0,0,1,2.12,7V85.69l20.5,19.64.13-46.62Q57.42,45.2,49.73,37.39Z"/></g></g></svg>